# xmcd
#
# Track frame offsets:
#	202
#	13676
#	27488
#	50127
#	62723
#	77105
#	105022
#	116373
#	132421
#	144946
#
# Disc length: 2069 seconds
#
# Revision: 1
# Processed by: cddbd v1.5.2PL0 Copyright (c) Steve Scherf et al.
# Submitted via: EasyCDDAExtractor 7.0.3.1
#
DISCID=7f08130a
DTITLE=Ed Bruce - Set Me Free
DYEAR=1997
DGENRE=Country
TTITLE0=Set Me Free
TTITLE1=Hallelujah ,I Love You
TTITLE2=July 12th,1939
TTITLE3=She Even Work Me Up To Say Goodbye
TTITLE4=Behind Closed Doors
TTITLE5=Another Place , Another Time
TTITLE6=King Of The Road
TTITLE7=No Money Down
TTITLE8=Ruby
TTITLE9=Hoppy´s Gone
EXTD=
EXTT0=
EXTT1=
EXTT2=
EXTT3=
EXTT4=
EXTT5=
EXTT6=
EXTT7=
EXTT8=
EXTT9=
PLAYORDER=
